<svg xmlns="http://www.w3.org/2000/svg" viewBox="0 0 106.61 114.24"><defs><style>.cls-1{fill:#fff;}</style></defs><title>testimonialsAsset 1</title><g id="Layer_2" data-name="Layer 2"><g id="svg2"><g id="g10"><g id="g12"><path id="path14" class="cls-1" d="M56.77,102.77c-4.3-1-8.89-6.53-11.77-13.32a37.29,37.29,0,0,1-2.73-10.07,23.24,23.24,0,0,1,.75-9.8c1.69-5.22,5.77-9.27,13.33-10.36h0l.37,0h0l.18,0h0l.18,0H59.4l.18,0h0l.18,0h0l.37,0h0c7.45,1.08,11.48,5.1,13.16,10.31a23.38,23.38,0,0,1,.74,9.81,37.49,37.49,0,0,1-2.73,10.09c-2.67,6.33-6.82,11.55-10.86,13.07l2.19,3.69-.43.38-2.86-2.23,0,1.48v.52l-.45-.25-.47-.27v8.43h-.59v-8.76l-.65-.37L54,106l-.28-.5,3.05-2.78ZM12,34.94l.17.25q.63.81,1.26,1.52t1.26,1.36q.63.64,1.26,1.2t1.26,1h0c.43.32.85.62,1.27.88a14.47,14.47,0,0,0,1.26.72h0q.63.31,1.27.56a11.71,11.71,0,0,0,1.25.4h0a10.12,10.12,0,0,0,2.53.32h0a10,10,0,0,0,1.27-.08,10.21,10.21,0,0,0,1.26-.24h0a11.91,11.91,0,0,0,1.26-.4,13.16,13.16,0,0,0,1.26-.56h0q.63-.32,1.26-.72t1.26-.89h0c.43-.32.85-.67,1.26-1s.84-.77,1.26-1.2.84-.88,1.26-1.36.83-1,1.26-1.52l.18-.25.48.34-.17.24h0v0q-.63.8-1.28,1.54t-1.28,1.39q-.64.65-1.29,1.23t-1.3,1.07h0q-.65.49-1.3.91c-.44.28-.88.53-1.31.75h0a13.48,13.48,0,0,1-1.31.58,12.18,12.18,0,0,1-1.33.42h0a11,11,0,0,1-1.33.25,10.74,10.74,0,0,1-1.34.08h0a10.74,10.74,0,0,1-1.34-.09h0a10.91,10.91,0,0,1-1.32-.25h0A12.14,12.14,0,0,1,20.78,43c-.43-.17-.87-.36-1.31-.58h0a15.08,15.08,0,0,1-1.31-.76c-.44-.28-.88-.59-1.31-.91h0q-.65-.5-1.3-1.07t-1.29-1.23q-.64-.65-1.28-1.39t-1.28-1.54h0l-.18-.25.48-.34h0Zm12.63,79.3h.59V72l1,.55.45.25v-.52l-.07-2.63,4.7,3.66.43-.38L28.14,67c6.27-2.25,12.76-10.37,16.93-20.23a58,58,0,0,0,4.21-15.59A36.07,36.07,0,0,0,48.14,16C41.21-5.49,8.4-5.23,1.47,16.12A35.83,35.83,0,0,0,.31,31.24,57.57,57.57,0,0,0,4.53,46.81C9,57.45,16.26,66.06,23,67.42h0l-5,4.52.28.5L23.44,71l1.15.65Zm3-47.67v.66l2.75,4.63-4-3.09-.49-.38,0,.62L26,71.74l-2.36-1.33-.11-.06-.12,0-4.08,1.16,4.38-4a.2.2,0,0,0,.14,0V67c-6.7-.76-14.16-9.49-18.78-20.39h0A57,57,0,0,1,.89,31.18,35.27,35.27,0,0,1,2,16.3C4.57,8.46,10.7,2.4,22.08.74h0l.28,0h0l.28,0h0l.28,0h0l.26,0h0l.28,0h0l.28,0h2l.29,0h0l.55,0h0l.25,0h0l.28,0h0l.28,0h0l.28,0h0C39,2.37,45.07,8.41,47.58,16.21A35.5,35.5,0,0,1,48.7,31.1a57.38,57.38,0,0,1-4.17,15.43c-4.19,9.93-10.72,18.06-16.93,20ZM90.86,65v49.21h-.59V64.7l-.65-.37-3.29.93-.28-.5L89.11,62c-4.3-1-8.89-6.53-11.77-13.32A37.27,37.27,0,0,1,74.61,38.6a23.23,23.23,0,0,1,.75-9.8c1.7-5.22,5.77-9.27,13.33-10.36h0l.37,0h0l.18,0h0l.18,0h0l.18,0h1.91l.18,0h0l.18,0h0l.18,0h0l.37,0h0c7.45,1.08,11.48,5.1,13.16,10.31a21.14,21.14,0,0,1,.94,6.46,28.73,28.73,0,0,1-.2,3.35,37.54,37.54,0,0,1-2.73,10.09C101,55,96.86,60.18,92.82,61.7L95,65.4l-.43.38-2.86-2.23,0,1.48v.51l-.45-.25L90.86,65h0ZM82.31,40.91l.11.15q.41.52.81,1t.81.87c.27.28.54.53.81.77s.54.46.8.66h0c.27.21.55.4.81.57s.53.32.8.46h0a8.78,8.78,0,0,0,.82.36,7.71,7.71,0,0,0,.78.25h0a6.47,6.47,0,0,0,.8.15h0a6.47,6.47,0,0,0,.81,0h0a6.4,6.4,0,0,0,.81,0,6.28,6.28,0,0,0,.8-.15h0a7.43,7.43,0,0,0,.8-.25h0a8.06,8.06,0,0,0,.81-.36h0c.27-.14.54-.29.8-.46s.54-.36.81-.57h0c.27-.2.54-.42.81-.66s.54-.5.81-.78.54-.57.81-.87.54-.63.81-1l.11-.15.48.34-.11.16h0q-.41.52-.83,1c-.28.32-.56.62-.83.9s-.56.55-.84.8-.56.48-.84.69h0c-.28.21-.56.41-.84.59a9.75,9.75,0,0,1-.86.49h0a9,9,0,0,1-.86.38h0a8,8,0,0,1-.87.28h0a7.23,7.23,0,0,1-1.75.22h0a7,7,0,0,1-.88-.06h0a6.83,6.83,0,0,1-.87-.17h0a7.74,7.74,0,0,1-.86-.27c-.29-.11-.57-.24-.87-.38h0a9.82,9.82,0,0,1-.86-.49q-.43-.28-.85-.59h0q-.42-.32-.84-.69c-.29-.25-.57-.52-.84-.8s-.56-.58-.83-.9-.56-.65-.83-1h0l-.11-.16.48-.34h0Zm7.53,21.21-2.47,2.24,2.21-.63.12,0,.11.06,1.37.77,0-1.58,0-.62.49.38,2.12,1.65-1.47-2.47a6.26,6.26,0,0,1-1.75.26,5.65,5.65,0,0,1-.66,0Zm-12-13.68C81,55.77,86.07,61.57,90.5,61.57s9.54-5.82,12.64-13.16a36.91,36.91,0,0,0,2.68-9.93,22.82,22.82,0,0,0-.72-9.56c-1.61-5-5.49-8.86-12.68-9.91h0L92,19h0l-.18,0H89.33l-.18,0h0l-.36,0h0C81.48,20.07,77.55,24,75.92,29a22.64,22.64,0,0,0-.73,9.56,36.7,36.7,0,0,0,2.69,9.91h0Zm-20,11.22h0Zm0,0h0Zm.37,0h0Zm.37,0h0Zm0,0h0Zm-.46,43.27a5.74,5.74,0,0,1-.66,0L55,105.14l2.21-.62.12,0,.11.06,1.37.77,0-1.58,0-.62.49.38,2.12,1.66-1.47-2.47a6.24,6.24,0,0,1-1.75.26h0ZM45.53,89.22c3.11,7.33,8.19,13.13,12.63,13.13S67.7,96.54,70.8,89.19a36.9,36.9,0,0,0,2.68-9.93,22.8,22.8,0,0,0-.71-9.56c-1.61-5-5.49-8.86-12.68-9.91h0l-.36,0h0l-.18,0h0l-.15,0H57.14l-.15,0h0l-.18,0h0l-.35,0h0c-7.29,1.06-11.23,4.95-12.85,10a22.66,22.66,0,0,0-.73,9.56,36.69,36.69,0,0,0,2.69,9.91ZM50,81.69l.11.15q.41.52.81,1t.81.87c.27.28.54.54.81.77s.54.46.8.66h0c.27.21.55.4.81.57a8.76,8.76,0,0,0,.8.46h0a8.77,8.77,0,0,0,.82.36,7.41,7.41,0,0,0,.78.25h0a6.5,6.5,0,0,0,.8.15h0a6.55,6.55,0,0,0,.81.05h0a6.41,6.41,0,0,0,.81,0,6.85,6.85,0,0,0,.8-.15h0a7.38,7.38,0,0,0,.8-.25h0a8,8,0,0,0,.81-.36h0c.27-.14.54-.29.8-.46s.54-.36.81-.57h0c.27-.2.54-.42.81-.66s.54-.5.81-.77.54-.57.81-.87.54-.63.81-1l.11-.15.48.34-.12.16h0q-.41.52-.83,1t-.83.9q-.42.42-.84.8c-.28.25-.56.48-.84.69h0c-.28.21-.56.41-.85.59s-.57.35-.86.49h0a9.21,9.21,0,0,1-.86.38h0a8,8,0,0,1-.87.28h0a7.15,7.15,0,0,1-.87.16,7,7,0,0,1-.88.06h0a6.93,6.93,0,0,1-.88-.06h0a6.89,6.89,0,0,1-.87-.17h0a8.45,8.45,0,0,1-.86-.27c-.28-.11-.57-.24-.87-.38h0c-.28-.14-.57-.31-.86-.49s-.57-.38-.85-.59h0c-.28-.21-.56-.45-.84-.69s-.57-.52-.84-.8-.56-.58-.83-.9-.56-.65-.83-1h0L49.49,82l.48-.34h0"/></g></g></g></g></svg>