<?xml version="1.0" encoding="utf-8"?>
<!-- Generator: Adobe Illustrator 22.1.0, SVG Export Plug-In . SVG Version: 6.00 Build 0)  -->
<svg version="1.1" id="Layer_1" xmlns="http://www.w3.org/2000/svg" xmlns:xlink="http://www.w3.org/1999/xlink" x="0px" y="0px"
	 viewBox="0 0 42.8 42.8" style="enable-background:new 0 0 42.8 42.8;" xml:space="preserve">
<style type="text/css">
	.st0{fill-rule:evenodd;clip-rule:evenodd;}
</style>
<path class="st0" d="M38.4,36c-0.7,0-1.3,0.3-1.7,0.7l0,0c-0.4,0.4-0.7,1-0.7,1.7c0,0.7,0.3,1.3,0.7,1.7c0.4,0.4,1,0.7,1.7,0.7
	c0.7,0,1.3-0.3,1.7-0.7l0,0c0.4-0.4,0.7-1,0.7-1.7c0-0.7-0.3-1.3-0.7-1.7C39.7,36.3,39.1,36,38.4,36L38.4,36z M34.9,11.1
	c0.6,0,1,0.4,1,1s-0.4,1-1,1H32v5h0.5v0l1.2,0v0h0c1.2,0,2.4,0.5,3.2,1.3c0.8,0.8,1.3,1.9,1.3,3.2h0v0v0c0,1.2-0.5,2.4-1.3,3.2
	c0,0,0,0-0.1,0.1c-0.8,0.8-1.9,1.3-3.1,1.3H32v1.5c0,0.6-0.4,1-1,1s-1-0.4-1-1v-1.5h-4c-0.6,0-1-0.4-1-1c0-0.6,0.4-1,1-1h4v-5h-1.6
	c-1.2,0-2.4-0.5-3.2-1.3l0,0c-0.8-0.8-1.3-1.9-1.3-3.2v0c0-1.2,0.5-2.4,1.3-3.2c0.8-0.8,1.9-1.3,3.2-1.3H30v-0.3V9.6
	c0-0.6,0.4-1,1-1s1,0.4,1,1v1.3v0.3H34.9L34.9,11.1z M30,13.1h-1.6c-0.7,0-1.3,0.3-1.8,0.7c-0.5,0.5-0.7,1.1-0.7,1.8v0
	c0,0.7,0.3,1.3,0.7,1.8c0.5,0.5,1.1,0.7,1.8,0.7H30V13.1L30,13.1z M32,25.1h1.6c0.7,0,1.3-0.3,1.7-0.7l0,0c0.5-0.5,0.7-1.1,0.7-1.8
	v0v0h0c0-0.7-0.3-1.3-0.7-1.8c-0.4-0.4-1.1-0.7-1.8-0.7h0v0l-1.2,0v0H32V25.1L32,25.1z M5,3.6c0,0-0.1,0.1-0.1,0.1
	c-1.6,1.3-2.6,3.1-2.8,5c-0.2,1.9,0.2,3.9,1.5,5.6c0,0,0.1,0.1,0.1,0.1c1.3,1.6,3.1,2.6,5,2.8c1.9,0.2,3.9-0.2,5.6-1.5
	c0,0,0.1-0.1,0.1-0.1c1.6-1.3,2.6-3.1,2.8-5c0.2-1.9-0.2-3.9-1.5-5.6c0,0-0.1-0.1-0.1-0.1c-1.3-1.6-3.1-2.6-5-2.8
	C8.6,1.8,6.6,2.3,5,3.6L5,3.6z M0.1,8.4C0.4,6,1.6,3.7,3.7,2l0,0c2.1-1.6,4.7-2.3,7.1-2c2.4,0.3,4.8,1.5,6.4,3.6l0,0
	c1.6,2.1,2.3,4.7,2,7.1c-0.3,2.1-1.2,4.2-2.9,5.7l5.2,6.6c0.3,0.4,0.3,1.1-0.2,1.4c-0.4,0.3-1.1,0.3-1.4-0.2l-5.2-6.6
	c-1.9,1.2-4.1,1.6-6.3,1.4C6,18.8,3.7,17.6,2,15.5l0,0C0.4,13.4-0.2,10.9,0.1,8.4L0.1,8.4z M17.1,39.4H8.7c-0.2,0.8-0.6,1.5-1.2,2.1
	l0,0l0,0c-0.8,0.8-1.9,1.3-3.1,1.3c-1.2,0-2.3-0.5-3.1-1.3C0.5,40.7,0,39.6,0,38.4c0-1.2,0.5-2.3,1.2-3c0,0,0,0,0.1-0.1
	C2.1,34.5,3.2,34,4.4,34c1.2,0,2.3,0.5,3.1,1.3l0,0c0.6,0.6,1,1.3,1.2,2.1h8.5c0.2-0.8,0.6-1.5,1.1-2c0,0,0,0,0.1-0.1
	c0.8-0.8,1.9-1.3,3.1-1.3c1.2,0,2.3,0.5,3.1,1.3l0,0c0.6,0.6,1,1.3,1.2,2.1h8.5c0.2-0.8,0.6-1.5,1.1-2c0,0,0,0,0.1-0.1
	c0.8-0.8,1.9-1.3,3.1-1.3c1.2,0,2.3,0.5,3.1,1.3l0,0c0.8,0.8,1.3,1.9,1.3,3.1c0,1.2-0.5,2.3-1.3,3.1l0,0l0,0
	c-0.8,0.8-1.9,1.3-3.1,1.3c-1.2,0-2.3-0.5-3.1-1.3c-0.6-0.6-1-1.3-1.2-2.1h-8.5c-0.2,0.8-0.6,1.5-1.2,2.1l0,0l0,0
	c-0.8,0.8-1.9,1.3-3.1,1.3c-1.2,0-2.3-0.5-3.1-1.3C17.7,41,17.3,40.2,17.1,39.4L17.1,39.4z M6.8,38.7c0-0.1,0-0.2,0-0.2
	c0-0.1,0-0.2,0-0.2c-0.1-0.6-0.3-1.1-0.7-1.4c-0.4-0.4-1-0.7-1.7-0.7c-0.7,0-1.3,0.3-1.7,0.7l0,0c-0.4,0.4-0.7,1-0.7,1.7
	c0,0.7,0.3,1.3,0.7,1.7c0.4,0.4,1,0.7,1.7,0.7c0.7,0,1.3-0.3,1.7-0.7l0,0C6.5,39.7,6.7,39.2,6.8,38.7L6.8,38.7z M21.4,36
	c-0.7,0-1.3,0.3-1.7,0.7l0,0c-0.4,0.4-0.7,1-0.7,1.7c0,0.7,0.3,1.3,0.7,1.7s1,0.7,1.7,0.7c0.7,0,1.3-0.3,1.7-0.7l0,0
	c0.4-0.4,0.6-0.9,0.7-1.5c0-0.1,0-0.1,0-0.2c0-0.1,0-0.2,0-0.2c-0.1-0.6-0.3-1.1-0.7-1.5C22.7,36.3,22.1,36,21.4,36z"/>
</svg>
