<svg xmlns="http://www.w3.org/2000/svg" xmlns:xlink="http://www.w3.org/1999/xlink" viewBox="0 0 85.89 77.3"><defs><style>.cls-1{fill:url(#linear-gradient);}.cls-2{fill:url(#linear-gradient-2);}.cls-3{fill:url(#linear-gradient-3);}.cls-4{fill:url(#linear-gradient-4);}.cls-5{fill:url(#linear-gradient-5);}.cls-6{fill:url(#linear-gradient-6);}.cls-7{fill:url(#linear-gradient-7);}.cls-8{fill:url(#linear-gradient-8);}.cls-9{fill:url(#linear-gradient-9);}.cls-10{fill:url(#linear-gradient-10);}.cls-11{fill:url(#linear-gradient-11);}.cls-12{fill:url(#linear-gradient-12);}</style><linearGradient id="linear-gradient" y1="38.65" x2="85.89" y2="38.65" gradientUnits="userSpaceOnUse"><stop offset="0" stop-color="#008cff"/><stop offset="0.34" stop-color="#4aa7f4"/></linearGradient><linearGradient id="linear-gradient-2" x1="5.73" y1="25.77" x2="37.22" y2="25.77" xlink:href="#linear-gradient"/><linearGradient id="linear-gradient-3" x1="14.31" y1="42.94" x2="22.9" y2="42.94" xlink:href="#linear-gradient"/><linearGradient id="linear-gradient-4" x1="27.2" y1="42.94" x2="35.79" y2="42.94" xlink:href="#linear-gradient"/><linearGradient id="linear-gradient-5" x1="42.94" y1="20.04" x2="71.57" y2="20.04" xlink:href="#linear-gradient"/><linearGradient id="linear-gradient-6" x1="74.44" y1="20.04" x2="80.16" y2="20.04" xlink:href="#linear-gradient"/><linearGradient id="linear-gradient-7" x1="42.94" y1="25.77" x2="71.57" y2="25.77" xlink:href="#linear-gradient"/><linearGradient id="linear-gradient-8" x1="74.44" y1="25.77" x2="80.16" y2="25.77" xlink:href="#linear-gradient"/><linearGradient id="linear-gradient-9" x1="42.94" y1="31.49" x2="71.57" y2="31.49" xlink:href="#linear-gradient"/><linearGradient id="linear-gradient-10" x1="74.44" y1="31.49" x2="80.16" y2="31.49" xlink:href="#linear-gradient"/><linearGradient id="linear-gradient-11" x1="42.94" y1="37.22" x2="71.57" y2="37.22" xlink:href="#linear-gradient"/><linearGradient id="linear-gradient-12" x1="74.44" y1="37.22" x2="80.16" y2="37.22" xlink:href="#linear-gradient"/></defs><title>Asset 20</title><g id="Layer_2" data-name="Layer 2"><g id="Layer_1-2" data-name="Layer 1"><path class="cls-1" d="M81.59,0H4.29A4.29,4.29,0,0,0,0,4.29v54.4A4.29,4.29,0,0,0,4.29,63H37.22v5.73H25.77A4.29,4.29,0,0,0,21.47,73v2.87A1.43,1.43,0,0,0,22.9,77.3H63a1.44,1.44,0,0,0,1.44-1.43V73a4.3,4.3,0,0,0-4.3-4.29h-10V63H81.59a4.3,4.3,0,0,0,4.3-4.29V4.29A4.3,4.3,0,0,0,81.59,0ZM2.86,11.57H83v40H2.86ZM4.29,2.86h77.3A1.43,1.43,0,0,1,83,4.29V8.71H2.86V4.29A1.43,1.43,0,0,1,4.29,2.86ZM61.55,73v1.44H24.33V73a1.44,1.44,0,0,1,1.44-1.43H60.12A1.43,1.43,0,0,1,61.55,73ZM47.24,68.71H40.08V63h7.16Zm34.35-8.59H4.29a1.43,1.43,0,0,1-1.43-1.43v-4.3H83v4.3A1.43,1.43,0,0,1,81.59,60.12Z"/><path class="cls-2" d="M35.79,20H14L12.84,15.4a1.43,1.43,0,0,0-1.39-1.09H7.16a1.44,1.44,0,0,0,0,2.87h3.17l4,18.89a1.44,1.44,0,0,0,1.41,1.15H32.92a1.44,1.44,0,0,0,1.41-1.15l2.86-14.31a1.43,1.43,0,0,0-1.12-1.69A1.33,1.33,0,0,0,35.79,20Zm-4,14.31H16.92L14.63,22.9H34Z"/><path class="cls-3" d="M18.61,38.65a4.3,4.3,0,1,0,4.29,4.29A4.3,4.3,0,0,0,18.61,38.65Zm0,5.72A1.43,1.43,0,1,1,20,42.94,1.43,1.43,0,0,1,18.61,44.37Z"/><path class="cls-4" d="M31.49,38.65a4.3,4.3,0,1,0,4.3,4.29A4.29,4.29,0,0,0,31.49,38.65Zm0,5.72a1.43,1.43,0,1,1,1.43-1.43A1.43,1.43,0,0,1,31.49,44.37Z"/><path class="cls-5" d="M70.14,18.61H44.37a1.43,1.43,0,0,0,0,2.86H70.14a1.43,1.43,0,0,0,0-2.86Z"/><path class="cls-6" d="M75.87,21.47h2.86a1.43,1.43,0,0,0,0-2.86H75.87a1.43,1.43,0,0,0,0,2.86Z"/><path class="cls-7" d="M70.14,24.33H44.37a1.44,1.44,0,0,0,0,2.87H70.14a1.44,1.44,0,0,0,0-2.87Z"/><path class="cls-8" d="M78.73,24.33H75.87a1.44,1.44,0,0,0,0,2.87h2.86a1.44,1.44,0,0,0,0-2.87Z"/><path class="cls-9" d="M70.14,30.06H44.37a1.43,1.43,0,1,0,0,2.86H70.14a1.43,1.43,0,0,0,0-2.86Z"/><path class="cls-10" d="M78.73,30.06H75.87a1.43,1.43,0,0,0,0,2.86h2.86a1.43,1.43,0,0,0,0-2.86Z"/><path class="cls-11" d="M70.14,35.79H44.37a1.43,1.43,0,0,0,0,2.86H70.14a1.43,1.43,0,0,0,0-2.86Z"/><path class="cls-12" d="M78.73,35.79H75.87a1.43,1.43,0,0,0,0,2.86h2.86a1.43,1.43,0,0,0,0-2.86Z"/></g></g></svg>