<svg xmlns="http://www.w3.org/2000/svg" xmlns:xlink="http://www.w3.org/1999/xlink" viewBox="0 0 95.78 75.98"><defs><style>.cls-1{fill:none;}.cls-2{clip-path:url(#clip-path);}.cls-3{fill:url(#linear-gradient);}</style><clipPath id="clip-path" transform="translate(0 0)"><polygon class="cls-1" points="2.94 76.15 95.78 76.15 95.78 0 0 0 2.94 76.15"/></clipPath><linearGradient id="linear-gradient" y1="37.99" x2="95.78" y2="37.99" gradientUnits="userSpaceOnUse"><stop offset="0" stop-color="#008cff"/><stop offset="0.34" stop-color="#4aa7f4"/></linearGradient></defs><title>Asset 21</title><g id="Layer_2" data-name="Layer 2"><g id="Layer_1-2" data-name="Layer 1"><g class="cls-2"><path class="cls-3" d="M94.89,17.26,62.59,6.07a1.38,1.38,0,0,0-1,2.58l28.92,9.9L69.6,25.41,47,15.17a1.38,1.38,0,1,0-1.14,2.51L66,26.79,46.42,34.25,5.25,18.55,46.42,2.85,56.56,6.72a1.38,1.38,0,0,0,1-2.57L46.91.09a1.38,1.38,0,0,0-1,0L.89,17.26A1.38,1.38,0,0,0,0,18.55v6.3a1.38,1.38,0,0,0,.89,1.29L15,31.5v4.77a1.38,1.38,0,0,0,2.76,0V32.55L45.93,43.31a1.33,1.33,0,0,0,.49.09,1.41,1.41,0,0,0,.49-.09L68.18,35.2V57a46.74,46.74,0,0,1-50.47-4.47V41.79a1.38,1.38,0,1,0-2.76,0V53.22a1.37,1.37,0,0,0,.52,1.07,49.46,49.46,0,0,0,52.71,5.82v5.58c-2.22.61-.92,2.64-.92,5a5.24,5.24,0,0,0,10.48,0c0-2.41-4.58-4.44-6.8-5v-7a49.44,49.44,0,0,0,6.43-4.36,1.39,1.39,0,0,0,.51-1.07V31.5l17-5.37a1.36,1.36,0,0,0,.89-1.28v-6.3a1.38,1.38,0,0,0-.89-1.29ZM75,70.74a2.48,2.48,0,1,1-2.48-2.48A2.48,2.48,0,0,1,75,70.74ZM2.76,20.55,45,36.67V40L2.76,23.9ZM47.8,40V36.67L68.18,28.9v3.35ZM75.13,52.55a49.62,49.62,0,0,1-4.19,2.9V34.15l4.19-1.6ZM70.94,31.19V27.85L93,20.55V23.9Z" transform="translate(0 0)"/></g></g></g></svg>