<?xml version="1.0" encoding="utf-8"?>
<!-- Generator: Adobe Illustrator 22.1.0, SVG Export Plug-In . SVG Version: 6.00 Build 0)  -->
<svg version="1.1" id="Layer_1" xmlns="http://www.w3.org/2000/svg" xmlns:xlink="http://www.w3.org/1999/xlink" x="0px" y="0px"
	 viewBox="0 0 42.8 42.8" style="enable-background:new 0 0 42.8 42.8;" xml:space="preserve">
<style type="text/css">
	.st0{fill-rule:evenodd;clip-rule:evenodd;}
</style>
<path class="st0" d="M13.2,37.3c-0.4-0.4-0.4-1,0-1.4c0.4-0.4,1-0.4,1.4,0l2.6,2.6c0.4,0.4,0.4,1,0,1.4l-2.6,2.6
	c-0.4,0.4-1,0.4-1.4,0c-0.4-0.4-0.4-1,0-1.4l0.9-0.9H6.5c-1.8,0-3.4-0.7-4.6-1.9l0,0l0,0l0,0C0.7,37.1,0,35.5,0,33.7
	c0-0.6,0.4-1,1-1c0.6,0,1,0.4,1,1c0,1.2,0.5,2.4,1.3,3.2l0,0c0.8,0.8,1.9,1.3,3.2,1.3h7.6L13.2,37.3L13.2,37.3z M32.4,22.4
	L32.4,22.4L32.4,22.4c-0.2-0.3-0.5-0.6-0.9-0.7c-0.3-0.1-0.5-0.2-0.7-0.4c-0.2-0.2-0.3-0.4-0.3-0.7c0-0.3,0-0.5,0.2-0.8
	c0.1-0.2,0.3-0.4,0.6-0.5l0,0c0.4-0.2,0.7-0.5,0.8-0.8l0,0c0.1-0.4,0.2-0.8,0-1.2c-0.2-0.4-0.3-0.8-0.5-1.2
	c-0.2-0.4-0.4-0.8-0.7-1.1c-0.2-0.3-0.6-0.6-1-0.7c-0.4-0.1-0.8,0-1.1,0.2c-0.2,0.1-0.5,0.2-0.8,0.2c-0.3,0-0.5-0.1-0.7-0.3l0,0
	c-0.2-0.2-0.4-0.4-0.4-0.7c-0.1-0.3-0.1-0.5,0-0.8c0.1-0.4,0.1-0.8,0-1.2c-0.1-0.4-0.4-0.7-0.8-0.8c-0.2-0.1-0.4-0.2-0.6-0.2
	c-0.2-0.1-0.4-0.1-0.6-0.2l0,0l0,0l-0.1,0l0,0c-0.2-0.1-0.4-0.1-0.5-0.2c-0.2-0.1-0.4-0.1-0.6-0.1c-0.4-0.1-0.8,0-1.1,0.2
	c-0.3,0.2-0.6,0.5-0.7,0.9c-0.1,0.3-0.2,0.5-0.4,0.7c-0.2,0.2-0.5,0.3-0.7,0.3c-0.3,0-0.5-0.1-0.8-0.2c-0.2-0.1-0.4-0.3-0.5-0.6
	c-0.2-0.4-0.5-0.7-0.8-0.8c0,0-0.1,0-0.1,0c-0.3-0.1-0.7-0.1-1.1,0l0,0l0,0c-0.4,0.2-0.8,0.3-1.2,0.5c-0.4,0.2-0.8,0.4-1.1,0.7
	c-0.3,0.2-0.6,0.6-0.7,1c-0.1,0.4,0,0.8,0.2,1.2l0,0.1c0.1,0.2,0.2,0.5,0.1,0.7c0,0.3-0.1,0.5-0.3,0.7c-0.2,0.2-0.4,0.3-0.6,0.4
	c-0.3,0.1-0.6,0.1-0.9,0l0,0c-0.4-0.1-0.7-0.1-1.1,0.1c-0.4,0.2-0.7,0.4-0.8,0.8l0,0.1c-0.1,0.2-0.2,0.4-0.2,0.5
	c-0.1,0.2-0.2,0.4-0.2,0.6l0,0l0,0l0,0c-0.1,0.2-0.1,0.4-0.2,0.6c-0.1,0.2-0.1,0.4-0.1,0.6c-0.1,0.4,0,0.8,0.3,1.2
	c0.2,0.3,0.6,0.6,0.9,0.7l0,0l0,0c0.2,0.1,0.5,0.2,0.6,0.4c0.2,0.2,0.3,0.5,0.3,0.7c0,0.3,0,0.5-0.2,0.8c-0.1,0.2-0.3,0.4-0.6,0.5
	c-0.4,0.2-0.7,0.5-0.8,0.8l0,0c-0.1,0.4-0.2,0.8,0,1.2l0,0c0.1,0.4,0.3,0.8,0.5,1.1c0.2,0.4,0.4,0.8,0.7,1.1c0.2,0.3,0.6,0.6,1,0.7
	c0.4,0.1,0.8,0,1.2-0.2c0.2-0.1,0.5-0.2,0.8-0.2c0.3,0,0.5,0.1,0.7,0.3c0.2,0.2,0.4,0.4,0.4,0.7c0.1,0.3,0.1,0.5,0,0.8
	c-0.1,0.4-0.1,0.8,0,1.2c0.1,0.4,0.4,0.7,0.8,0.8c0.2,0.1,0.4,0.2,0.6,0.3c0.2,0.1,0.4,0.2,0.6,0.2c0.2,0.1,0.4,0.1,0.6,0.2
	c0.2,0.1,0.4,0.1,0.6,0.1c0.4,0.1,0.8,0,1.1-0.2c0.3-0.2,0.6-0.5,0.7-0.9l0,0c0.1-0.3,0.2-0.5,0.4-0.6c0.2-0.2,0.5-0.3,0.7-0.3
	c0.3,0,0.5,0.1,0.8,0.2l0,0c0.2,0.1,0.4,0.3,0.5,0.6c0,0,0,0.1,0.1,0.1c0.2,0.3,0.5,0.6,0.8,0.7c0,0,0.1,0,0.1,0
	c0.3,0.1,0.7,0.1,1,0l0.1,0c0.4-0.2,0.8-0.3,1.2-0.5c0.4-0.2,0.8-0.4,1.1-0.7c0.3-0.2,0.6-0.6,0.7-1c0.1-0.4,0-0.8-0.2-1.2
	c-0.1-0.2-0.2-0.5-0.2-0.8c0-0.3,0.1-0.5,0.3-0.7c0.2-0.2,0.4-0.3,0.6-0.4c0.2-0.1,0.5-0.1,0.8,0l0.1,0c0.4,0.2,0.8,0.1,1.2,0
	c0.4-0.1,0.7-0.4,0.8-0.8c0.2-0.4,0.3-0.8,0.5-1.2c0.1-0.4,0.2-0.8,0.3-1.3l0-0.1C32.7,23.1,32.6,22.8,32.4,22.4L32.4,22.4z
	 M30.6,23.6c-0.1,0.2-0.1,0.5-0.2,0.7c-0.1,0.2-0.2,0.5-0.2,0.7c-0.6-0.1-1.2-0.1-1.7,0c-0.6,0.2-1.2,0.5-1.6,1
	c-0.5,0.5-0.7,1.2-0.8,1.9c0,0.5,0,1.1,0.3,1.6c-0.2,0.1-0.4,0.2-0.6,0.4c-0.2,0.1-0.4,0.2-0.7,0.3c-0.3-0.5-0.7-0.8-1.2-1.1l0,0
	l0,0c-0.6-0.3-1.3-0.5-1.9-0.5c-0.7,0.1-1.3,0.3-1.8,0.8c-0.4,0.3-0.7,0.8-0.9,1.3l-0.2,0c-0.2,0-0.3-0.1-0.5-0.1
	c-0.2-0.1-0.4-0.1-0.5-0.2l-0.2-0.1c0.1-0.5,0.1-1.1,0-1.6c-0.2-0.7-0.5-1.2-1.1-1.7c-0.5-0.4-1.2-0.7-1.9-0.7c-0.5,0-1.1,0-1.6,0.3
	c-0.1-0.2-0.2-0.4-0.3-0.6c-0.1-0.2-0.2-0.4-0.3-0.6c0.5-0.3,0.9-0.7,1.1-1.2c0.3-0.6,0.5-1.3,0.4-1.9c-0.1-0.7-0.3-1.3-0.7-1.8
	c-0.4-0.4-0.8-0.8-1.3-1l0-0.1c0-0.2,0.1-0.3,0.1-0.5l0,0l0,0l0,0c0.1-0.2,0.1-0.3,0.2-0.5l0.1-0.2c0.6,0.1,1.1,0.1,1.6,0
	c0.7-0.2,1.2-0.5,1.7-1c0.5-0.5,0.7-1.2,0.8-1.9c0-0.5,0-1.1-0.3-1.6c0.2-0.1,0.4-0.2,0.6-0.3c0.2-0.1,0.4-0.2,0.7-0.3
	c0.3,0.5,0.7,0.8,1.2,1.1c0.6,0.3,1.3,0.5,1.9,0.5c0.7-0.1,1.3-0.3,1.8-0.8c0.4-0.3,0.7-0.8,0.9-1.3l0.1,0c0.2,0,0.3,0.1,0.4,0.1
	l0,0l0.1,0l0,0c0.1,0,0.3,0.1,0.5,0.2l0.1,0.1c-0.1,0.5-0.1,1.1,0,1.6c0.2,0.7,0.5,1.3,1.1,1.7l0,0l0,0c0.5,0.4,1.2,0.7,1.9,0.7
	c0.5,0,1.1,0,1.6-0.3c0.1,0.2,0.2,0.4,0.3,0.6c0.1,0.2,0.2,0.4,0.3,0.6c-0.5,0.3-0.9,0.7-1.1,1.2c-0.3,0.6-0.5,1.2-0.4,1.9
	c0.1,0.7,0.3,1.3,0.7,1.8C29.6,23,30.1,23.4,30.6,23.6L30.6,23.6z M20.1,25.7c-1.2-0.4-2.1-1.2-2.6-2.2c-0.5-1-0.7-2.2-0.3-3.4
	c0.4-1.2,1.2-2.1,2.2-2.6c1-0.5,2.2-0.7,3.4-0.3c1.2,0.4,2.1,1.2,2.6,2.2c0.5,1,0.7,2.2,0.3,3.4c-0.4,1.2-1.2,2.1-2.2,2.6
	C22.5,26,21.3,26.1,20.1,25.7L20.1,25.7z M19.2,22.6c-0.3-0.6-0.4-1.2-0.2-1.9c0.2-0.7,0.7-1.2,1.2-1.5c0.6-0.3,1.2-0.4,1.9-0.2
	c0.7,0.2,1.2,0.7,1.5,1.2c0.3,0.6,0.4,1.2,0.2,1.9c-0.2,0.7-0.7,1.2-1.2,1.5c-0.6,0.3-1.2,0.4-1.9,0.2C20,23.6,19.5,23.2,19.2,22.6
	L19.2,22.6z M28.8,2.6h7.6c1.8,0,3.4,0.7,4.6,1.9l0,0l0,0l0,0c1.2,1.2,1.9,2.8,1.9,4.6c0,0.6-0.4,1-1,1c-0.6,0-1-0.4-1-1
	c0-1.2-0.5-2.4-1.3-3.2l0,0c-0.8-0.8-1.9-1.3-3.2-1.3h-7.6l0.9,0.9c0.4,0.4,0.4,1,0,1.4c-0.4,0.4-1,0.4-1.4,0l-2.6-2.6
	c-0.4-0.4-0.4-1,0-1.4l2.6-2.6c0.4-0.4,1-0.4,1.4,0c0.4,0.4,0.4,1,0,1.4L28.8,2.6L28.8,2.6z M2.6,14.1V6.5c0-1.8,0.7-3.4,1.9-4.6
	l0,0l0,0l0,0C5.7,0.7,7.3,0,9.1,0c0.6,0,1,0.4,1,1s-0.4,1-1,1C7.9,2,6.7,2.5,5.9,3.3l0,0C5.1,4.1,4.6,5.3,4.6,6.5v7.6l0.9-0.9
	c0.4-0.4,1-0.4,1.4,0c0.4,0.4,0.4,1,0,1.4l-2.6,2.6c-0.4,0.4-1,0.4-1.4,0l-2.6-2.6c-0.4-0.4-0.4-1,0-1.4c0.4-0.4,1-0.4,1.4,0
	L2.6,14.1L2.6,14.1z M40.2,28.8v7.6c0,1.8-0.7,3.4-1.9,4.6l0,0l0,0l0,0c-1.2,1.2-2.8,1.9-4.6,1.9c-0.6,0-1-0.4-1-1s0.4-1,1-1
	c1.2,0,2.4-0.5,3.2-1.3l0,0c0.8-0.8,1.3-1.9,1.3-3.2v-7.6l-0.9,0.9c-0.4,0.4-1,0.4-1.4,0c-0.4-0.4-0.4-1,0-1.4l2.6-2.6
	c0.4-0.4,1-0.4,1.4,0l2.6,2.6c0.4,0.4,0.4,1,0,1.4c-0.4,0.4-1,0.4-1.4,0L40.2,28.8z"/>
</svg>
