<svg xmlns="http://www.w3.org/2000/svg" xmlns:xlink="http://www.w3.org/1999/xlink" viewBox="0 0 89.5 89.53"><defs><style>.cls-1{fill:none;}.cls-2{opacity:0.8;}.cls-3{clip-path:url(#clip-path);}.cls-4{fill:url(#linear-gradient);}.cls-5{fill:url(#linear-gradient-2);}.cls-6{fill:url(#linear-gradient-3);}</style><clipPath id="clip-path" transform="translate(-0.09 -0.07)"><rect class="cls-1" width="89.39" height="89.81"/></clipPath><linearGradient id="linear-gradient" x1="32.95" y1="19.3" x2="71.41" y2="19.3" gradientUnits="userSpaceOnUse"><stop offset="0" stop-color="#008cff"/><stop offset="0.34" stop-color="#4aa7f4"/></linearGradient><linearGradient id="linear-gradient-2" x1="0.09" y1="63.4" x2="89.59" y2="63.4" xlink:href="#linear-gradient"/><linearGradient id="linear-gradient-3" x1="47.48" y1="19.37" x2="58.08" y2="19.37" xlink:href="#linear-gradient"/></defs><title>Asset 16</title><g id="Layer_2" data-name="Layer 2"><g id="Layer_1-2" data-name="Layer 1"><g class="cls-2"><g class="cls-3"><path class="cls-4" d="M33,19.3A19.23,19.23,0,1,0,52.18.07,19.26,19.26,0,0,0,33,19.3Zm35,0A15.73,15.73,0,1,1,52.18,3.57,15.75,15.75,0,0,1,67.91,19.3Z" transform="translate(-0.09 -0.07)"/><path class="cls-5" d="M20.22,89.08a1.75,1.75,0,0,0,2.47,0l8.48-8.34a5.32,5.32,0,0,0,1.24-5.43l1.82-1.76a5.21,5.21,0,0,1,3.64-1.47H61.11a15.66,15.66,0,0,0,11-4.46c.12-.12-.93,1.12,15.85-18.94A7,7,0,0,0,77.3,39.62L67,50.22a7,7,0,0,0-5.43-2.6H42.06a22.6,22.6,0,0,0-8.76-1.75c-8.42,0-15.77,3.89-19.71,11.18A5.22,5.22,0,0,0,8.91,58.5L.6,66.84a1.74,1.74,0,0,0,0,2.46ZM33.3,49.37A19.14,19.14,0,0,1,41,51a1.87,1.87,0,0,0,.7.15H61.55a3.5,3.5,0,0,1,0,7H47.29a1.75,1.75,0,1,0,0,3.49H61.55a7,7,0,0,0,7-7,6.84,6.84,0,0,0-.06-.91c10-10.26,11.39-11.7,11.44-11.77a3.49,3.49,0,1,1,5.34,4.51L69.58,65.19a12.15,12.15,0,0,1-8.47,3.41H37.87a8.7,8.7,0,0,0-6.07,2.45l-1.48,1.43L16.62,58.79c3.2-6,9.21-9.42,16.68-9.42ZM11.39,61a1.74,1.74,0,0,1,2.16-.25c.3.19-.56-.61,15.14,15.08a1.75,1.75,0,0,1,0,2.46l-7.22,7.12L4.3,68.07Z" transform="translate(-0.09 -0.07)"/></g></g><path class="cls-6" d="M51.08,8.89v2a5.25,5.25,0,0,0,1.75,10.19,1.75,1.75,0,0,1,0,3.5,3.17,3.17,0,0,1-2.27-1.32,1.74,1.74,0,1,0-2.67,2.24,7.17,7.17,0,0,0,3.19,2.28v2a1.75,1.75,0,0,0,3.5,0V27.81a5.24,5.24,0,0,0-1.75-10.18,1.75,1.75,0,0,1,0-3.5,2.84,2.84,0,0,1,1.89.91,1.75,1.75,0,0,0,2.43-2.51,6.73,6.73,0,0,0-2.57-1.61v-2a1.75,1.75,0,0,0-3.5,0Z" transform="translate(-0.09 -0.07)"/></g></g></svg>