<svg xmlns="http://www.w3.org/2000/svg" xmlns:xlink="http://www.w3.org/1999/xlink" viewBox="0 0 82.43 88.32"><defs><style>.cls-1{fill:url(#linear-gradient);}.cls-2{fill:url(#linear-gradient-2);}.cls-3{fill:url(#linear-gradient-3);}.cls-4{fill:url(#linear-gradient-4);}.cls-5{fill:url(#linear-gradient-5);}.cls-6{fill:url(#linear-gradient-6);}.cls-7{fill:url(#linear-gradient-7);}.cls-8{fill:url(#linear-gradient-8);}.cls-9{fill:url(#linear-gradient-9);}.cls-10{fill:url(#linear-gradient-10);}</style><linearGradient id="linear-gradient" x1="64.77" y1="42.69" x2="76.54" y2="42.69" gradientUnits="userSpaceOnUse"><stop offset="0" stop-color="#008cff"/><stop offset="0.34" stop-color="#4aa7f4"/></linearGradient><linearGradient id="linear-gradient-2" x1="64.77" y1="54.46" x2="76.54" y2="54.46" xlink:href="#linear-gradient"/><linearGradient id="linear-gradient-3" x1="64.77" y1="66.24" x2="76.54" y2="66.24" xlink:href="#linear-gradient"/><linearGradient id="linear-gradient-4" x1="64.77" y1="78.01" x2="76.54" y2="78.01" xlink:href="#linear-gradient"/><linearGradient id="linear-gradient-5" x1="26.5" y1="20.61" x2="55.94" y2="20.61" xlink:href="#linear-gradient"/><linearGradient id="linear-gradient-6" x1="0" y1="44.16" x2="82.43" y2="44.16" xlink:href="#linear-gradient"/><linearGradient id="linear-gradient-7" x1="5.89" y1="42.69" x2="17.66" y2="42.69" xlink:href="#linear-gradient"/><linearGradient id="linear-gradient-8" x1="5.89" y1="54.46" x2="17.66" y2="54.46" xlink:href="#linear-gradient"/><linearGradient id="linear-gradient-9" x1="5.89" y1="66.24" x2="17.66" y2="66.24" xlink:href="#linear-gradient"/><linearGradient id="linear-gradient-10" x1="5.89" y1="78.01" x2="17.66" y2="78.01" xlink:href="#linear-gradient"/></defs><title>Asset 14</title><g id="Layer_2" data-name="Layer 2"><g id="Layer_1-2" data-name="Layer 1"><path class="cls-1" d="M76.54,38.27H64.77V47.1H76.54ZM73.6,44.16H67.71V41.22H73.6Z"/><path class="cls-2" d="M76.54,50.05H64.77v8.83H76.54ZM73.6,55.94H67.71V53H73.6Z"/><path class="cls-3" d="M76.54,61.82H64.77v8.83H76.54ZM73.6,67.71H67.71V64.77H73.6Z"/><path class="cls-4" d="M76.54,73.6H64.77v8.83H76.54ZM73.6,79.49H67.71V76.54H73.6Z"/><path class="cls-5" d="M47.1,5.89H35.33v8.83H26.5V26.5h8.83v8.83H47.1V26.5h8.84V14.72H47.1ZM53,17.66v5.89H44.16v8.83H38.27V23.55H29.44V17.66h8.83V8.83h5.89v8.83Z"/><path class="cls-6" d="M61.82,32.38V0H20.61V32.38H0V88.32H82.43V32.38Zm-41.21,53H2.94v-50H20.61Zm11.77,0V58.88h7.36V85.37Zm10.31,0V58.88h7.36V85.37Zm16.19,0H53V55.94H29.44V85.37H23.55V2.94H58.88Zm20.61,0H61.82v-50H79.49Z"/><path class="cls-7" d="M17.66,38.27H5.89V47.1H17.66Zm-2.94,5.89H8.83V41.22h5.89Z"/><path class="cls-8" d="M17.66,50.05H5.89v8.83H17.66Zm-2.94,5.89H8.83V53h5.89Z"/><path class="cls-9" d="M17.66,61.82H5.89v8.83H17.66Zm-2.94,5.89H8.83V64.77h5.89Z"/><path class="cls-10" d="M17.66,73.6H5.89v8.83H17.66Zm-2.94,5.89H8.83V76.54h5.89Z"/></g></g></svg>