<?xml version="1.0" encoding="utf-8"?>
<!-- Generator: Adobe Illustrator 22.1.0, SVG Export Plug-In . SVG Version: 6.00 Build 0)  -->
<svg version="1.1" id="Layer_1" xmlns="http://www.w3.org/2000/svg" xmlns:xlink="http://www.w3.org/1999/xlink" x="0px" y="0px"
	 viewBox="0 0 42.8 42.8" style="enable-background:new 0 0 42.8 42.8;" xml:space="preserve">
<style type="text/css">
	.st0{fill-rule:evenodd;clip-rule:evenodd;}
</style>
<path class="st0" d="M30.7,15.5c-0.6,0-1-0.4-1-1s0.4-1,1-1h8.8c0.9,0,1.8,0.4,2.4,1c0,0,0,0,0.1,0.1c0.6,0.6,0.9,1.4,0.9,2.3v16.4
	c0,0.9-0.4,1.8-1,2.4c-0.6,0.6-1.5,1-2.4,1h-4.9l-5.7,5.9c-0.4,0.4-1,0.4-1.4,0c-0.2-0.2-0.3-0.5-0.3-0.7h0v-5.2h-8.3
	c-0.9,0-1.8-0.4-2.4-1l0,0l0,0c-0.6-0.6-1-1.5-1-2.4v-6.7c0-0.6,0.4-1,1-1c0.6,0,1,0.4,1,1v6.7c0,0.4,0.2,0.7,0.4,1l0,0
	c0.3,0.2,0.6,0.4,1,0.4h9.3c0.6,0,1,0.4,1,1v3.7l4.2-4.4c0.2-0.2,0.5-0.4,0.8-0.4h5.3c0.4,0,0.7-0.2,1-0.4c0.3-0.3,0.4-0.6,0.4-1
	V16.8c0-0.4-0.1-0.7-0.4-0.9l0,0c-0.3-0.3-0.6-0.4-1-0.4H30.7L30.7,15.5z M35.9,28.1H23c-0.6,0-1,0.4-1,1c0,0.6,0.4,1,1,1h13
	c0.6,0,1-0.4,1-1C36.9,28.5,36.5,28.1,35.9,28.1L35.9,28.1z M35.9,23.7h-7c-0.6,0-1,0.4-1,1s0.4,1,1,1h7c0.6,0,1-0.4,1-1
	S36.5,23.7,35.9,23.7L35.9,23.7z M13,13.3c0.5,0,0.8-0.4,0.9-0.8l0-0.3c1.7-0.4,3.1-1.2,3.1-3.2v0c0-2.1-1.6-3.3-3.9-3.3
	c-1.4,0-2.5,0.4-3.3,1.1C9.6,7,9.5,7.4,9.5,7.7c0,0.6,0.5,1.1,1.1,1.1c0.3,0,0.5-0.1,0.7-0.3c0.6-0.4,1.2-0.6,1.9-0.6
	c0.9,0,1.5,0.4,1.5,1.1v0c0,0.8-0.6,1.2-2,1.4c-0.5,0.1-0.8,0.4-0.7,1l0.2,1.1c0.1,0.4,0.4,0.8,0.9,0.8H13L13,13.3z M11.5,15.7
	L11.5,15.7c0,0.8,0.6,1.4,1.4,1.4c0.8,0,1.4-0.6,1.4-1.4v0c0-0.8-0.6-1.4-1.4-1.4C12.1,14.3,11.5,14.9,11.5,15.7L11.5,15.7z M3.4,0
	C2.5,0,1.6,0.4,1,1l0,0l0,0l0,0C0.4,1.6,0,2.5,0,3.4v16.4c0,0.9,0.4,1.8,1,2.4l0,0c0.6,0.6,1.5,1,2.4,1h2.3v5.2h0
	c0,0.3,0.1,0.5,0.3,0.7c0.4,0.4,1,0.4,1.4,0l5.7-5.9h10.8c0.9,0,1.8-0.4,2.4-1c0.6-0.6,1-1.5,1-2.4V3.4c0-0.9-0.4-1.7-0.9-2.3
	c0,0,0,0-0.1-0.1c-0.6-0.6-1.5-1-2.4-1H3.4L3.4,0z M23.9,2H3.4C3,2,2.7,2.2,2.4,2.4l0,0C2.2,2.7,2,3,2,3.4v16.4c0,0.4,0.2,0.7,0.4,1
	l0,0l0,0c0.2,0.2,0.6,0.4,1,0.4h3.3c0.6,0,1,0.4,1,1v3.7l4.2-4.4c0.2-0.2,0.5-0.4,0.8-0.4h11.2c0.4,0,0.7-0.2,1-0.4
	c0.3-0.3,0.4-0.6,0.4-1V3.4c0-0.4-0.1-0.7-0.4-0.9l0,0C24.7,2.2,24.3,2,23.9,2z"/>
</svg>
