<svg xmlns="http://www.w3.org/2000/svg" xmlns:xlink="http://www.w3.org/1999/xlink" viewBox="0 0 76.54 97.97"><defs><style>.cls-1{fill:url(#linear-gradient);}.cls-2{fill:url(#linear-gradient-2);}.cls-3{fill:url(#linear-gradient-3);}.cls-4{fill:url(#linear-gradient-4);}</style><linearGradient id="linear-gradient" x1="7.65" y1="37.5" x2="11.48" y2="37.5" gradientUnits="userSpaceOnUse"><stop offset="0" stop-color="#008cff"/><stop offset="0.34" stop-color="#4aa7f4"/></linearGradient><linearGradient id="linear-gradient-2" x1="19.13" y1="47.07" x2="57.4" y2="47.07" xlink:href="#linear-gradient"/><linearGradient id="linear-gradient-3" x1="0" y1="48.98" x2="76.54" y2="48.98" xlink:href="#linear-gradient"/><linearGradient id="linear-gradient-4" x1="7.65" y1="49.35" x2="68.88" y2="49.35" xlink:href="#linear-gradient"/></defs><title>Asset 18</title><g id="Layer_2" data-name="Layer 2"><g id="Layer_1-2" data-name="Layer 1"><path class="cls-1" d="M9.57,39.42A1.92,1.92,0,1,0,7.65,37.5,1.92,1.92,0,0,0,9.57,39.42Z"/><path class="cls-2" d="M44,27.94H32.53a1.91,1.91,0,0,0-1.92,1.91v9.57H21.05a1.91,1.91,0,0,0-1.92,1.91V52.81a1.91,1.91,0,0,0,1.92,1.91h9.56v9.57a1.91,1.91,0,0,0,1.92,1.91H44a1.9,1.9,0,0,0,1.91-1.91V54.72h9.57a1.9,1.9,0,0,0,1.91-1.91V41.33a1.9,1.9,0,0,0-1.91-1.91H45.92V29.85A1.9,1.9,0,0,0,44,27.94Zm9.57,15.3V50.9H44a1.9,1.9,0,0,0-1.91,1.91v9.57H34.44V52.81a1.91,1.91,0,0,0-1.91-1.91H23V43.24h9.57a1.91,1.91,0,0,0,1.91-1.91V31.76H42.1v9.57A1.9,1.9,0,0,0,44,43.24Z"/><path class="cls-3" d="M76.54,10.77a5.72,5.72,0,0,0-8.73-4.89A19.1,19.1,0,0,1,57.4,9,19.12,19.12,0,0,1,42.73,2.11h0a5.78,5.78,0,0,0-8.93,0A19.1,19.1,0,0,1,19.13,9,19.09,19.09,0,0,1,8.73,5.88,5.72,5.72,0,0,0,0,10.77v39A39.9,39.9,0,0,0,7.84,73.69,81.13,81.13,0,0,0,37.51,97.81a2,2,0,0,0,.76.16,1.94,1.94,0,0,0,.75-.16A81,81,0,0,0,68.7,73.69,40,40,0,0,0,76.54,49.8Zm-3.83,39a36.09,36.09,0,0,1-7.07,21.59A79.41,79.41,0,0,1,38.27,94,79.12,79.12,0,0,1,10.9,71.39,36.09,36.09,0,0,1,3.83,49.8v-39A1.89,1.89,0,0,1,6.65,9.09a22.81,22.81,0,0,0,12.48,3.69,22.9,22.9,0,0,0,17.6-8.21,2,2,0,0,1,1.54-.74,2,2,0,0,1,1.53.74,22.93,22.93,0,0,0,17.6,8.21A22.84,22.84,0,0,0,69.89,9.09a1.89,1.89,0,0,1,2.82,1.68v39Z"/><path class="cls-4" d="M68.07,15.31a1.89,1.89,0,0,0-1.74-.24,26.66,26.66,0,0,1-8.93,1.54A26.82,26.82,0,0,1,39.54,9.77a1.93,1.93,0,0,0-2.55,0,26.8,26.8,0,0,1-17.86,6.84,26.65,26.65,0,0,1-8.92-1.54,1.92,1.92,0,0,0-2.56,1.8v13a1.92,1.92,0,0,0,3.83,0V19.46a30.34,30.34,0,0,0,7.65,1,30.62,30.62,0,0,0,19.14-6.73A30.61,30.61,0,0,0,57.4,20.44a30.42,30.42,0,0,0,7.66-1V49.8a28.34,28.34,0,0,1-5.54,17A70.8,70.8,0,0,1,38.29,85.3,71.38,71.38,0,0,1,17,66.79a28.39,28.39,0,0,1-5.54-17V45.16a1.92,1.92,0,1,0-3.83,0V49.8A32.2,32.2,0,0,0,14,69.09a75.53,75.53,0,0,0,23.4,20.08,1.9,1.9,0,0,0,.92.23,1.85,1.85,0,0,0,.92-.23A74.82,74.82,0,0,0,62.58,69.08a32.21,32.21,0,0,0,6.3-19.28V16.87A1.91,1.91,0,0,0,68.07,15.31Z"/></g></g></svg>