<?xml version="1.0" encoding="utf-8"?>
<!-- Generator: Adobe Illustrator 22.1.0, SVG Export Plug-In . SVG Version: 6.00 Build 0)  -->
<svg version="1.1" id="Layer_1" xmlns="http://www.w3.org/2000/svg" xmlns:xlink="http://www.w3.org/1999/xlink" x="0px" y="0px"
	 viewBox="0 0 42.8 42.8" style="enable-background:new 0 0 42.8 42.8;" xml:space="preserve">
<style type="text/css">
	.st0{fill-rule:evenodd;clip-rule:evenodd;}
</style>
<path class="st0" d="M30.1,5.8c-0.6,0-1-0.4-1-1s0.4-1,1-1h7.5c0.6,0,1,0.4,1,1v13.3c0,0.6-0.4,1-1,1c-0.6,0-1-0.4-1-1V5.8H30.1
	L30.1,5.8z M29.4,16.5c-0.2-0.4-0.6-0.6-1-0.8c-0.4-0.1-0.8-0.4-1-0.7c-0.3-0.3-0.4-0.7-0.5-1.1c0-0.4,0.1-0.9,0.3-1.2
	c0.2-0.4,0.5-0.7,0.9-0.9l0,0c0.4-0.2,0.7-0.5,0.9-0.9c0,0,0-0.1,0-0.1c0.1-0.4,0.1-0.8,0-1.2l0,0c-0.2-0.5-0.4-1-0.7-1.5
	c-0.3-0.5-0.5-1-0.9-1.5c-0.3-0.4-0.7-0.6-1.1-0.7c-0.4-0.1-0.9,0-1.3,0.2c-0.4,0.2-0.8,0.3-1.2,0.3c-0.4,0-0.9-0.2-1.2-0.5l0,0
	c-0.3-0.3-0.6-0.7-0.7-1.1c-0.1-0.4-0.1-0.9,0.1-1.3c0.2-0.4,0.1-0.9,0-1.3c-0.2-0.4-0.5-0.7-0.9-0.9c-0.3-0.1-0.5-0.2-0.8-0.3
	c-0.2-0.1-0.5-0.2-0.8-0.3l0,0l0,0l-0.1,0l0,0c-0.3-0.1-0.5-0.1-0.7-0.2c-0.3-0.1-0.5-0.1-0.8-0.2c-0.5-0.1-0.9,0-1.3,0.2
	c-0.4,0.2-0.7,0.6-0.8,1c-0.1,0.4-0.4,0.8-0.7,1.1C14.8,2.8,14.4,3,13.9,3c-0.4,0-0.8-0.1-1.2-0.3c-0.4-0.2-0.7-0.5-0.9-0.9
	c-0.2-0.4-0.5-0.7-0.9-0.9c0,0-0.1,0-0.1,0c-0.4-0.1-0.8-0.1-1.2,0l0,0l0,0C9.1,1.1,8.5,1.3,8,1.6C7.5,1.8,7,2.1,6.6,2.4
	C6.2,2.7,5.9,3.1,5.8,3.5C5.7,3.9,5.8,4.4,6,4.8l0,0c0.2,0.4,0.3,0.8,0.3,1.2c0,0.4-0.2,0.8-0.5,1.2c-0.3,0.3-0.6,0.5-1,0.6
	C4.3,8,3.9,8,3.4,7.8l0,0C2.9,7.7,2.5,7.7,2.1,7.9C1.7,8,1.4,8.4,1.2,8.8l0,0.1C1.1,9.1,1,9.3,0.9,9.6c-0.1,0.2-0.2,0.5-0.3,0.8l0,0
	l0,0l0,0.1l0,0c-0.1,0.3-0.2,0.5-0.2,0.7c-0.1,0.3-0.1,0.5-0.2,0.8l0,0.1c-0.1,0.5,0.1,0.9,0.3,1.3l0,0c0.3,0.3,0.6,0.6,1,0.8l0,0
	l0,0c0.4,0.1,0.7,0.3,1,0.7C2.8,15.1,3,15.5,3,16c0,0.4-0.1,0.9-0.3,1.2c-0.2,0.4-0.5,0.7-0.9,0.9c-0.4,0.2-0.7,0.5-0.9,0.9l0,0
	c-0.2,0.4-0.2,0.9,0,1.3l0,0c0.2,0.5,0.4,1,0.7,1.5c0.3,0.5,0.5,1,0.9,1.5c0.3,0.4,0.7,0.6,1.1,0.7l0.1,0c0.4,0.1,0.8,0,1.2-0.2
	c0.4-0.2,0.8-0.3,1.3-0.3c0.4,0,0.9,0.2,1.2,0.5c0.3,0.3,0.6,0.7,0.7,1.1C8,25.5,8,26,7.8,26.4c-0.2,0.4-0.1,0.9,0,1.3
	c0.2,0.4,0.5,0.7,0.9,0.9l0,0c0.3,0.1,0.5,0.2,0.8,0.3c0.3,0.1,0.6,0.2,0.8,0.3c0.3,0.1,0.5,0.2,0.8,0.2c0.3,0.1,0.5,0.1,0.8,0.2
	c0.5,0.1,0.9,0,1.3-0.2c0.4-0.2,0.7-0.6,0.8-1l0,0c0.1-0.4,0.4-0.8,0.7-1c0.3-0.3,0.7-0.4,1.2-0.5c0.4,0,0.8,0.1,1.2,0.3
	c0.4,0.2,0.7,0.5,0.9,0.9c0,0,0,0.1,0,0.1c0.2,0.4,0.5,0.7,0.9,0.8l0,0l0,0c0.4,0.2,0.9,0.2,1.3,0l0.1,0c0.5-0.2,1-0.4,1.5-0.7
	c0.5-0.3,1-0.6,1.5-0.9c0.4-0.3,0.6-0.7,0.7-1.1c0.1-0.4,0-0.9-0.2-1.3c-0.2-0.4-0.3-0.8-0.3-1.3c0-0.4,0.2-0.8,0.5-1.2
	c0.3-0.3,0.6-0.5,1-0.7l0,0l0,0c0.4-0.1,0.8-0.1,1.2,0l0.1,0c0.4,0.2,0.9,0.2,1.3,0c0,0,0.1,0,0.1,0c0.4-0.2,0.7-0.5,0.9-0.9
	c0.2-0.5,0.4-1.1,0.6-1.6c0.2-0.5,0.3-1.1,0.4-1.7C29.8,17.3,29.6,16.9,29.4,16.5L29.4,16.5z M27.7,17.6c-0.1,0.4-0.2,0.8-0.3,1.3
	c-0.1,0.4-0.3,0.8-0.4,1.2l0,0l0,0h0l0,0c-0.8-0.2-1.6-0.2-2.4,0l0,0c-0.8,0.2-1.5,0.7-2,1.3c-0.6,0.7-0.9,1.5-1,2.3
	c-0.1,0.8,0.1,1.5,0.5,2.2c-0.4,0.2-0.7,0.4-1.1,0.6c-0.4,0.2-0.8,0.4-1.2,0.5c-0.4-0.7-0.9-1.2-1.6-1.6c-0.7-0.4-1.6-0.6-2.4-0.6
	c-0.9,0.1-1.6,0.4-2.3,0.9c-0.6,0.5-1,1.1-1.3,1.9c-0.2,0-0.3-0.1-0.5-0.1c-0.2-0.1-0.5-0.1-0.7-0.2c-0.2-0.1-0.5-0.2-0.7-0.2
	C10.1,27,9.9,27,9.8,26.9c0.2-0.8,0.3-1.6,0.1-2.3c-0.2-0.8-0.7-1.5-1.3-2.1c-0.6-0.5-1.5-0.9-2.3-0.9C5.5,21.5,4.7,21.7,4,22
	c-0.2-0.4-0.4-0.7-0.6-1.1c-0.2-0.4-0.4-0.8-0.5-1.2c0.7-0.4,1.3-0.9,1.6-1.6c0.4-0.7,0.6-1.5,0.5-2.4c-0.1-0.8-0.4-1.6-0.9-2.2
	c-0.5-0.6-1.2-1.1-1.9-1.3c0-0.2,0.1-0.3,0.1-0.5c0.1-0.2,0.1-0.4,0.2-0.6l0,0l0-0.1l0,0c0.1-0.2,0.1-0.4,0.2-0.7
	c0.1-0.2,0.1-0.3,0.2-0.5c0.8,0.2,1.6,0.2,2.3,0c0.8-0.2,1.5-0.6,2.1-1.3c0.6-0.7,0.9-1.5,1-2.3C8.4,5.5,8.2,4.7,7.8,4
	c0.4-0.2,0.7-0.4,1.1-0.6C9.3,3.1,9.7,3,10.1,2.8C10.5,3.5,11,4,11.7,4.4c0.7,0.4,1.6,0.6,2.4,0.6c0.9-0.1,1.6-0.4,2.3-0.9
	c0.6-0.5,1-1.1,1.3-1.9c0.2,0,0.3,0.1,0.5,0.1c0.2,0.1,0.4,0.1,0.6,0.2l0,0l0.1,0l0,0c0.2,0.1,0.4,0.1,0.7,0.2
	c0.2,0.1,0.3,0.1,0.5,0.2c-0.2,0.8-0.3,1.5-0.1,2.3c0.2,0.8,0.7,1.6,1.3,2.1l0,0l0,0c0.6,0.5,1.5,0.9,2.3,0.9
	c0.8,0.1,1.6-0.1,2.2-0.4c0.2,0.3,0.4,0.7,0.6,1.1c0.2,0.4,0.4,0.8,0.5,1.2c-0.7,0.4-1.3,0.9-1.6,1.6c-0.4,0.7-0.6,1.5-0.5,2.4
	c0.1,0.8,0.4,1.6,0.9,2.2C26.2,16.9,26.9,17.4,27.7,17.6L27.7,17.6z M13.2,20.4c-1.5-0.5-2.6-1.5-3.3-2.8c-0.7-1.3-0.9-2.8-0.4-4.3
	l0,0c0.5-1.5,1.5-2.6,2.8-3.3c1.3-0.7,2.8-0.9,4.3-0.4c0,0,0.1,0,0.1,0c1.5,0.5,2.6,1.5,3.3,2.8c0.7,1.3,0.9,2.8,0.4,4.3
	c0,0,0,0.1,0,0.1c-0.5,1.5-1.5,2.6-2.8,3.3c-1.3,0.7-2.8,0.9-4.3,0.4C13.3,20.4,13.2,20.4,13.2,20.4L13.2,20.4z M11.7,16.7
	c-0.4-0.8-0.6-1.8-0.2-2.8l0,0c0.3-1,1-1.7,1.8-2.2c0.8-0.4,1.8-0.6,2.8-0.2l0,0c1,0.3,1.7,1,2.2,1.8c0.4,0.8,0.6,1.8,0.2,2.8l0,0
	c-0.3,1-1,1.7-1.8,2.2c-0.8,0.4-1.8,0.6-2.8,0.2l0,0C12.9,18.2,12.1,17.5,11.7,16.7L11.7,16.7z M41.2,26.6c0.5-0.2,1.1,0,1.3,0.5
	c0.2,0.5,0,1.1-0.5,1.3l0,0c-0.6,0.4-1.3,0.6-2.1,0.6c-0.7,0-1.5-0.2-2.1-0.7l0,0c-0.6-0.5-1-1.1-1.2-1.7c-0.2-0.6-0.2-1.2-0.1-1.9
	c-0.1,0-0.2-0.1-0.3-0.1c-0.2-0.1-0.4-0.1-0.6-0.2l0,0l-0.1,0l0,0c-0.2,0-0.3-0.1-0.5-0.1l-0.3,0c-0.2,0.6-0.5,1.2-1,1.6
	c-0.5,0.5-1.2,0.8-1.9,1l0,0c-0.7,0.1-1.4,0-2.1-0.4c-0.6-0.3-1-0.7-1.4-1.2c-0.3,0.1-0.6,0.3-0.8,0.4c-0.3,0.2-0.5,0.3-0.8,0.5
	c0.3,0.6,0.5,1.2,0.4,1.8c0,0.7-0.2,1.5-0.7,2.1c-0.4,0.6-1,1-1.7,1.2c-0.6,0.2-1.2,0.2-1.9,0.1c0,0.1-0.1,0.2-0.1,0.3
	c-0.1,0.2-0.1,0.4-0.2,0.6l0,0.1l0,0c0,0.2-0.1,0.4-0.1,0.6c0,0.1,0,0.2,0,0.3c0.6,0.2,1.2,0.5,1.6,1c0.5,0.5,0.8,1.2,0.9,1.9
	c0.1,0.7,0,1.5-0.3,2.1c-0.3,0.6-0.7,1-1.2,1.4c0.1,0.2,0.2,0.4,0.3,0.6c0.2,0.3,0.4,0.6,0.6,0.9c0.3,0.4,0.2,1.1-0.2,1.4
	c-0.4,0.3-1.1,0.2-1.4-0.2c-0.2-0.3-0.4-0.7-0.7-1c-0.2-0.4-0.4-0.7-0.6-1.1l0,0c-0.2-0.3-0.2-0.7-0.1-1.1c0,0,0-0.1,0-0.1
	c0.1-0.4,0.4-0.7,0.8-0.9c0.3-0.2,0.5-0.4,0.7-0.7c0.1-0.3,0.2-0.6,0.2-0.9c-0.1-0.3-0.2-0.6-0.4-0.9c-0.2-0.2-0.5-0.4-0.8-0.5l0,0
	l0,0c-0.4-0.1-0.7-0.3-1-0.6c-0.3-0.3-0.4-0.8-0.4-1.2c0-0.2,0.1-0.5,0.1-0.7c0-0.2,0.1-0.4,0.1-0.7l0,0l0-0.1
	c0.1-0.2,0.1-0.5,0.2-0.7c0.1-0.2,0.1-0.4,0.2-0.6l0-0.1c0.2-0.4,0.4-0.7,0.8-0.9l0,0l0,0c0.4-0.2,0.8-0.2,1.2-0.1
	c0.4,0.1,0.7,0.1,1,0c0.3-0.1,0.6-0.3,0.8-0.5c0.2-0.3,0.3-0.6,0.3-0.9c0-0.3-0.1-0.6-0.2-0.9l0-0.1c-0.2-0.3-0.3-0.7-0.3-1.1l0-0.1
	c0.1-0.4,0.3-0.8,0.6-1l0,0c0.4-0.3,0.8-0.6,1.2-0.8c0.4-0.3,0.9-0.5,1.3-0.7c0.4-0.2,0.8-0.2,1.2-0.1c0.4,0.1,0.7,0.4,0.9,0.8
	c0.1,0.3,0.4,0.5,0.7,0.6c0.3,0.1,0.6,0.2,0.9,0.2l0,0c0.3,0,0.6-0.2,0.9-0.4c0.2-0.2,0.4-0.5,0.5-0.8l0,0c0.1-0.4,0.3-0.8,0.7-1
	c0.3-0.2,0.7-0.3,1.2-0.3c0.2,0,0.5,0.1,0.7,0.1c0.2,0,0.4,0.1,0.6,0.1l0,0l0.1,0l0,0c0.2,0.1,0.5,0.1,0.7,0.2
	c0.2,0.1,0.4,0.1,0.6,0.2l0.1,0c0.4,0.2,0.7,0.5,0.9,0.8c0.2,0.4,0.2,0.8,0.1,1.2l0,0c-0.1,0.3-0.1,0.7,0,1c0.1,0.3,0.3,0.6,0.5,0.8
	l0,0c0.3,0.2,0.6,0.3,0.9,0.3c0.3,0,0.7-0.1,0.9-0.3C41.1,26.7,41.1,26.7,41.2,26.6L41.2,26.6L41.2,26.6L41.2,26.6L41.2,26.6z
	 M32,39.7c1.3,0.3,2.6,0.1,3.7-0.5c0,0,0,0,0.1,0c1.1-0.7,1.9-1.7,2.2-3c0.3-1.3,0.1-2.6-0.6-3.7c-0.7-1.1-1.7-1.9-3-2.2
	c-1.3-0.3-2.6-0.1-3.7,0.5c0,0,0,0-0.1,0c-1.1,0.7-1.9,1.7-2.2,3c-0.3,1.3-0.1,2.6,0.6,3.7l0,0C29.6,38.5,30.7,39.3,32,39.7L32,39.7
	z M30.7,36.4c0.4,0.6,1,1.1,1.8,1.3c0.8,0.2,1.5,0.1,2.2-0.3l0,0c0.6-0.4,1.1-1,1.3-1.8c0.2-0.8,0-1.6-0.3-2.2
	c-0.4-0.6-1-1.1-1.8-1.3c-0.8-0.2-1.5-0.1-2.2,0.3l0,0c-0.6,0.4-1.1,1-1.3,1.8C30.1,35,30.3,35.8,30.7,36.4L30.7,36.4L30.7,36.4
	L30.7,36.4z M16.1,36.7c0.6,0,1,0.4,1,1c0,0.6-0.4,1-1,1H4.8c-0.6,0-1-0.4-1-1v-8.8c0-0.6,0.4-1,1-1s1,0.4,1,1v7.8H16.1z"/>
</svg>
