<svg xmlns="http://www.w3.org/2000/svg" xmlns:xlink="http://www.w3.org/1999/xlink" viewBox="0 0 100.31 71.89"><defs><style>.cls-1{fill:url(#linear-gradient);}.cls-2{fill:url(#linear-gradient-2);}.cls-3{fill:url(#linear-gradient-3);}.cls-4{fill:url(#linear-gradient-4);}.cls-5{fill:url(#linear-gradient-5);}.cls-6{fill:url(#linear-gradient-6);}.cls-7{fill:url(#linear-gradient-7);}.cls-8{fill:url(#linear-gradient-8);}.cls-9{fill:url(#linear-gradient-9);}.cls-10{fill:url(#linear-gradient-10);}.cls-11{fill:url(#linear-gradient-11);}.cls-12{fill:url(#linear-gradient-12);}.cls-13{fill:url(#linear-gradient-13);}</style><linearGradient id="linear-gradient" x1="13.38" y1="61.86" x2="33.44" y2="61.86" gradientUnits="userSpaceOnUse"><stop offset="0" stop-color="#008cff"/><stop offset="0.34" stop-color="#4aa7f4"/></linearGradient><linearGradient id="linear-gradient-2" x1="70.22" y1="61.86" x2="90.28" y2="61.86" xlink:href="#linear-gradient"/><linearGradient id="linear-gradient-3" x1="63.53" y1="40.96" x2="100.31" y2="40.96" xlink:href="#linear-gradient"/><linearGradient id="linear-gradient-4" x1="70.22" y1="34.27" x2="96.97" y2="34.27" xlink:href="#linear-gradient"/><linearGradient id="linear-gradient-5" x1="0" y1="35.11" x2="66.88" y2="35.11" xlink:href="#linear-gradient"/><linearGradient id="linear-gradient-6" x1="1.67" y1="55.17" x2="11.7" y2="55.17" xlink:href="#linear-gradient"/><linearGradient id="linear-gradient-7" x1="35.11" y1="55.17" x2="63.53" y2="55.17" xlink:href="#linear-gradient"/><linearGradient id="linear-gradient-8" x1="91.95" y1="55.17" x2="98.64" y2="55.17" xlink:href="#linear-gradient"/><linearGradient id="linear-gradient-9" x1="6.69" y1="15.05" x2="65.2" y2="15.05" xlink:href="#linear-gradient"/><linearGradient id="linear-gradient-10" x1="21.73" y1="61.86" x2="25.08" y2="61.86" xlink:href="#linear-gradient"/><linearGradient id="linear-gradient-11" x1="78.58" y1="61.86" x2="81.92" y2="61.86" xlink:href="#linear-gradient"/><linearGradient id="linear-gradient-12" x1="6.69" y1="1.67" x2="30.09" y2="1.67" xlink:href="#linear-gradient"/><linearGradient id="linear-gradient-13" x1="0" y1="1.67" x2="3.34" y2="1.67" xlink:href="#linear-gradient"/></defs><title>Asset 15</title><g id="Layer_2" data-name="Layer 2"><g id="Layer_1-2" data-name="Layer 1"><path class="cls-1" d="M23.41,71.89a10,10,0,1,1,10-10A10,10,0,0,1,23.41,71.89Zm0-16.72a6.69,6.69,0,1,0,6.68,6.69A6.7,6.7,0,0,0,23.41,55.17Z"/><path class="cls-2" d="M80.25,71.89a10,10,0,1,1,10-10A10,10,0,0,1,80.25,71.89Zm0-16.72a6.69,6.69,0,1,0,6.69,6.69A6.7,6.7,0,0,0,80.25,55.17Z"/><path class="cls-3" d="M98.64,63.53h-10V60.19H97V44L82.68,21.73H66.88V60.19h5v3.34H65.2a1.67,1.67,0,0,1-1.67-1.67V20.06a1.67,1.67,0,0,1,1.67-1.67H83.6a1.67,1.67,0,0,1,1.4.77l15,23.41a1.66,1.66,0,0,1,.26.9V61.86A1.66,1.66,0,0,1,98.64,63.53Z"/><path class="cls-4" d="M97,43.47H71.89a1.67,1.67,0,0,1-1.67-1.67v-15a1.67,1.67,0,0,1,1.67-1.67h15v3.34H73.56V40.13H97Z"/><path class="cls-5" d="M65.2,63.53H31.77V60.19H63.53V10H3.34V60.19H15.05v3.34H1.67A1.67,1.67,0,0,1,0,61.86V8.36A1.67,1.67,0,0,1,1.67,6.69H65.2a1.68,1.68,0,0,1,1.68,1.67v53.5A1.67,1.67,0,0,1,65.2,63.53Z"/><rect class="cls-6" x="1.67" y="53.5" width="10.03" height="3.34"/><rect class="cls-7" x="35.11" y="53.5" width="28.42" height="3.34"/><rect class="cls-8" x="91.95" y="53.5" width="6.69" height="3.34"/><rect class="cls-9" x="6.69" y="13.38" width="58.52" height="3.34"/><rect class="cls-10" x="21.73" y="60.19" width="3.34" height="3.34"/><rect class="cls-11" x="78.58" y="60.19" width="3.34" height="3.34"/><rect class="cls-12" x="6.69" width="23.41" height="3.34"/><rect class="cls-13" width="3.34" height="3.34"/></g></g></svg>