<?xml version="1.0" encoding="utf-8"?>
<!-- Generator: Adobe Illustrator 22.1.0, SVG Export Plug-In . SVG Version: 6.00 Build 0)  -->
<svg version="1.1" id="Layer_1" xmlns="http://www.w3.org/2000/svg" xmlns:xlink="http://www.w3.org/1999/xlink" x="0px" y="0px"
	 viewBox="0 0 42.8 42.8" style="enable-background:new 0 0 42.8 42.8;" xml:space="preserve">
<style type="text/css">
	.st0{fill-rule:evenodd;clip-rule:evenodd;}
</style>
<path class="st0" d="M34.2,13.8c0.6,0,1,0.4,1,1c0,0.6-0.4,1-1,1H19.5c-0.6,0-1-0.4-1-1c0-0.6,0.4-1,1-1H34.2L34.2,13.8z M10.9,32.2
	v9.6c0,0.6,0.4,1,1,1h30c0.6,0,1-0.4,1-1V1c0-0.6-0.4-1-1-1H21.1l0,0l0,0l0,0l0,0l0,0l0,0c-0.1,0-0.2,0-0.2,0.1l0,0l0,0l0,0l0,0l0,0
	l0,0l0,0l0,0l0,0l0,0l0,0l0,0l0,0l0,0l0,0l0,0l0,0l0,0l0,0l0,0l0,0l0,0l0,0l0,0l0,0l0,0c0,0,0,0-0.1,0.1l0,0l0,0l0,0l0,0l0,0l0,0
	l-9.2,9.2l0,0l0,0l0,0l0,0l0,0l0,0h0l0,0l0,0l0,0l0,0l0,0l0,0l0,0l0,0l0,0l0,0l0,0l0,0l0,0l0,0l0,0l0,0l0,0l0,0l0,0l0,0l0,0l0,0l0,0
	l0,0l0,0l0,0l0,0l0,0v0l0,0l0,0c0,0.1-0.1,0.2-0.1,0.3l0,0V14c0,0.6,0.4,1,1,1s1-0.4,1-1v-2.8h8.2c0.6,0,1-0.4,1-1V2h18.7v38.8h-28
	v-8.6c0-0.6-0.4-1-1-1C11.3,31.2,10.9,31.7,10.9,32.2L10.9,32.2z M20.1,9.2h-5.8l5.8-5.8V9.2L20.1,9.2z M21.1,25.8
	c-0.1-0.2-0.2-0.4-0.3-0.5l-15-12.5c-0.4-0.4-1.1-0.3-1.4,0.1l-4.2,5c-0.4,0.4-0.3,1.1,0.1,1.4l15,12.5c0.2,0.1,0.4,0.2,0.5,0.2
	l6.4,1.1v0c0.2,0,0.3,0,0.5,0c0.5-0.2,0.8-0.8,0.6-1.3L21.1,25.8L21.1,25.8z M20.9,30.9l-3-0.5l2-2.3L20.9,30.9L20.9,30.9z
	 M2.4,18.5l13.4,11.2l2.9-3.5L5.3,15L2.4,18.5L2.4,18.5z M34.2,20.7c0.6,0,1,0.4,1,1s-0.4,1-1,1h-10c-0.6,0-1-0.4-1-1s0.4-1,1-1
	H34.2z"/>
</svg>
