<svg xmlns="http://www.w3.org/2000/svg" xmlns:xlink="http://www.w3.org/1999/xlink" viewBox="0 0 85.53 80.93"><defs><style>.cls-1{fill:url(#linear-gradient);}.cls-2{fill:url(#linear-gradient-2);}.cls-3{fill:url(#linear-gradient-3);}.cls-4{fill:url(#linear-gradient-4);}.cls-5{fill:url(#linear-gradient-5);}.cls-6{fill:url(#linear-gradient-6);}.cls-7{fill:url(#linear-gradient-7);}.cls-8{fill:url(#linear-gradient-8);}.cls-9{fill:url(#linear-gradient-9);}.cls-10{fill:url(#linear-gradient-10);}</style><linearGradient id="linear-gradient" x1="13.57" y1="33.01" x2="85.53" y2="33.01" gradientUnits="userSpaceOnUse"><stop offset="0" stop-color="#008cff"/><stop offset="0.34" stop-color="#4aa7f4"/></linearGradient><linearGradient id="linear-gradient-2" x1="4.03" y1="18.38" x2="53.81" y2="18.38" xlink:href="#linear-gradient"/><linearGradient id="linear-gradient-3" x1="49.56" y1="55.42" x2="74.03" y2="55.42" xlink:href="#linear-gradient"/><linearGradient id="linear-gradient-4" x1="32.95" y1="12.96" x2="44.14" y2="12.96" xlink:href="#linear-gradient"/><linearGradient id="linear-gradient-5" x1="17.89" y1="7.26" x2="29.08" y2="7.26" xlink:href="#linear-gradient"/><linearGradient id="linear-gradient-6" x1="64.22" y1="46.2" x2="73.11" y2="46.2" xlink:href="#linear-gradient"/><linearGradient id="linear-gradient-7" x1="68.93" y1="61.72" x2="76.67" y2="61.72" xlink:href="#linear-gradient"/><linearGradient id="linear-gradient-8" x1="0" y1="50.81" x2="23.85" y2="50.81" xlink:href="#linear-gradient"/><linearGradient id="linear-gradient-9" x1="19.1" y1="69.08" x2="36.66" y2="69.08" xlink:href="#linear-gradient"/><linearGradient id="linear-gradient-10" x1="69.71" y1="11.44" x2="77.92" y2="11.44" xlink:href="#linear-gradient"/></defs><title>Asset 19</title><g id="Layer_2" data-name="Layer 2"><g id="Layer_1-2" data-name="Layer 1"><path class="cls-1" d="M14.88,64.32h0a5.15,5.15,0,0,1-.11-6.74L28,40a1.29,1.29,0,0,1,.19-.21l36-32.37A32.34,32.34,0,0,1,77.29.24a6.56,6.56,0,0,1,7.57,3.3,7,7,0,0,1,0,6,32.4,32.4,0,0,1-8.24,11.75l-36,32.37a1.46,1.46,0,0,1-.24.17L21.51,65.18A5.14,5.14,0,0,1,14.88,64.32Zm2.3-2.08h0a2.05,2.05,0,0,0,2.66.34L38.68,51.23,74.56,19A29.59,29.59,0,0,0,82,8.28a4,4,0,0,0,0-3.39,3.45,3.45,0,0,0-4-1.67A29.32,29.32,0,0,0,66.29,9.75L30.41,42,17.19,59.5a2.06,2.06,0,0,0,0,2.74Z"/><path class="cls-2" d="M4.43,13.37a1.55,1.55,0,0,1,.12-2.18L11.45,5A1.54,1.54,0,0,1,13,4.67L52.78,18.83a1.54,1.54,0,0,1,1,1.16,1.56,1.56,0,0,1-.48,1.45L41.8,31.78a1.55,1.55,0,0,1-1.75.22L4.87,13.71A1.48,1.48,0,0,1,4.43,13.37Zm8.4-5.47L8.28,12,40.52,28.76l8.78-7.89Z"/><path class="cls-3" d="M64.44,80.08a1.35,1.35,0,0,1-.3-.47L49.67,42.7a1.54,1.54,0,0,1,.4-1.72l11.5-10.34a1.55,1.55,0,0,1,2.54.78L74,72.48A1.56,1.56,0,0,1,73.52,74l-6.9,6.21a1.54,1.54,0,0,1-1.39.35A1.49,1.49,0,0,1,64.44,80.08ZM52.94,42.57,66.21,76.4l4.56-4.09L61.71,34.67Z"/><path class="cls-4" d="M35,15,33,12.69l3.45-3.1a4.64,4.64,0,1,1,6.2,6.9l-1.15,1-2.06-2.3,1.15-1a1.55,1.55,0,0,0-2.07-2.3Z"/><path class="cls-5" d="M20,9.81l-2.07-2.3,3.45-3.1a4.64,4.64,0,1,1,6.2,6.9L25.47,9a1.54,1.54,0,1,0-2.06-2.3Z"/><path class="cls-6" d="M68.12,51.8l-2.07-2.3,3.45-3.11a1.55,1.55,0,1,0-2.07-2.3l-1.15,1-2.06-2.3,1.15-1a4.64,4.64,0,1,1,6.2,6.9Z"/><path class="cls-7" d="M71.68,67.32,69.61,65l3.45-3.1A1.54,1.54,0,1,0,71,59.62l-2.07-2.3a4.64,4.64,0,1,1,6.2,6.9Z"/><path class="cls-8" d="M.4,48.21a1.51,1.51,0,0,1-.4-1A1.54,1.54,0,0,1,.51,46l4.6-4.14a1.56,1.56,0,0,1,1.49-.33l17.25,5.3-.91,3-16.41-5L3.94,47.11,17.22,57.7,15.3,60.12.58,48.39C.52,48.33.45,48.27.4,48.21Z"/><path class="cls-9" d="M29.36,80.42c-.05-.07-.1-.13-.15-.21L19.1,64.34l2.61-1.66L30.84,77l2.59-2.33L30.15,57.83l3-.59L36.63,75a1.53,1.53,0,0,1-.48,1.44l-4.6,4.14a1.5,1.5,0,0,1-1.25.38A1.52,1.52,0,0,1,29.36,80.42Z"/><path class="cls-10" d="M70.93,11.71,69.71,8.86l3-1.28A3.65,3.65,0,0,1,77,8.44a3.8,3.8,0,0,1,.48,4.31l-1.66,2.9-2.69-1.53,1.66-2.9a.62.62,0,0,0-.08-.7h0a.6.6,0,0,0-.7-.13Z"/></g></g></svg>